0
SECTION
2
ENTITIES
0
LINE
8
1
62
1
10
        4.144110000
20
        1.361050000
30
        2.525000000
11
        7.967910000
21
        3.088820000
31
        1.926280000
0
LINE
8
1
62
1
10
        7.967910000
20
        3.088820000
30
        1.926280000
11
       11.354450000
21
        5.493380000
31
        1.093030000
0
LINE
8
1
62
1
10
       11.354450000
20
        5.493380000
30
        1.093030000
11
       13.452220000
21
        8.968750000
31
       -0.111280000
0
LINE
8
1
62
1
10
       13.452220000
20
        8.968750000
30
       -0.111280000
11
       12.661660000
21
       12.898800000
31
       -1.473170000
0
LINE
8
1
62
1
10
       12.661660000
20
       12.898800000
30
       -1.473170000
11
       17.048010000
21
       15.974700000
31
       -2.227360000
0
LINE
8
1
62
1
10
       17.048010000
20
       15.974700000
30
       -2.227360000
11
       20.403330000
21
       20.093450000
31
       -3.237270000
0
LINE
8
1
62
1
10
       20.403330000
20
       20.093450000
30
       -3.237270000
11
       21.450260000
21
       25.244600000
31
       -4.500330000
0
LINE
8
1
62
1
10
       19.457840000
20
       30.125900000
30
       -5.697240000
11
       21.450260000
21
       25.244600000
31
       -4.500330000
0
LINE
8
1
62
1
10
       19.457840000
20
       30.125900000
30
       -5.697240000
11
       23.424430000
21
       33.798530000
31
       -5.880690000
0
LINE
8
1
62
1
10
       23.424430000
20
       33.798530000
30
       -5.880690000
11
       25.809120000
21
       38.644880000
31
       -6.122780000
0
LINE
8
1
62
1
10
       25.293520000
20
       44.019580000
30
       -6.391260000
11
       25.809120000
21
       38.644880000
31
       -6.122780000
0
LINE
8
1
62
1
10
       22.243550000
20
       48.479060000
30
       -6.614040000
11
       25.293520000
21
       44.019580000
31
       -6.391260000
0
LINE
8
1
62
1
10
       22.243550000
20
       48.479060000
30
       -6.614040000
11
       24.423010000
21
       53.420030000
31
       -6.300850000
0
LINE
8
1
62
1
10
       24.423010000
20
       53.420030000
30
       -6.300850000
11
       24.583580000
21
       58.815380000
31
       -5.958860000
0
LINE
8
1
62
1
10
       22.658520000
20
       63.860250000
30
       -5.639080000
11
       24.583580000
21
       58.815380000
31
       -5.958860000
0
LINE
8
1
62
1
10
       19.300750000
20
       68.094810000
30
       -5.370660000
11
       22.658520000
21
       63.860250000
31
       -5.639080000
0
LINE
8
1
62
1
10
       19.300750000
20
       68.094810000
30
       -5.370660000
11
       18.508230000
21
       73.369940000
31
       -4.423700000
0
LINE
8
1
62
1
10
       16.733280000
20
       78.408960000
30
       -3.519110000
11
       18.508230000
21
       73.369940000
31
       -4.423700000
0
LINE
8
1
62
1
10
       14.137640000
20
       83.092120000
30
       -2.678400000
11
       16.733280000
21
       78.408960000
31
       -3.519110000
0
LINE
8
1
62
1
10
       10.900220000
20
       87.372950000
30
       -1.909900000
11
       14.137640000
21
       83.092120000
31
       -2.678400000
0
LINE
8
1
62
1
10
        8.610140000
20
       90.917460000
30
       -1.382540000
11
       10.900220000
21
       87.372950000
31
       -1.909900000
0
LINE
8
1
62
1
10
        5.991310000
20
       94.233750000
30
       -0.889140000
11
        8.610140000
21
       90.917460000
31
       -1.382540000
0
LINE
8
1
62
1
10
        3.104370000
20
       97.327050000
30
       -0.428910000
11
        5.991310000
21
       94.233750000
31
       -0.889140000
0
LINE
8
1
62
1
10
        0.000000000
20
      100.209800000
30
        0.000000000
11
        3.104370000
21
       97.327050000
31
       -0.428910000
0
LINE
8
1
62
1
10
        4.144110000
20
        1.361050000
30
        2.525000000
11
        4.579140000
21
        1.475260000
31
       -2.460970000
0
LINE
8
1
62
1
10
       12.661660000
20
       12.898800000
30
       -1.473170000
11
       14.882070000
21
       12.930460000
31
       -5.960250000
0
LINE
8
1
62
1
10
       19.457840000
20
       30.125900000
30
       -5.697240000
11
       21.872410000
21
       30.641460000
31
      -10.082240000
0
LINE
8
1
62
1
10
       22.243550000
20
       48.479060000
30
       -6.614040000
11
       24.640880000
21
       48.921110000
31
      -11.019950000
0
LINE
8
1
62
1
10
       19.300750000
20
       68.094810000
30
       -5.370660000
11
       21.514880000
21
       68.125350000
31
       -9.877730000
0
LINE
8
1
62
1
10
       10.900220000
20
       87.372950000
30
       -1.909900000
11
       14.144060000
21
       87.200020000
31
       -5.718130000
0
LINE
8
1
62
1
10
        0.000000000
20
      100.209800000
30
        0.000000000
11
        4.192890000
21
       99.593270000
31
       -2.659180000
0
LINE
8
1
62
1
10
        2.575810000
20
        1.580330000
30
       -7.048200000
11
        4.579140000
21
        1.475260000
31
       -2.460970000
0
LINE
8
1
62
1
10
       14.882070000
20
       12.930460000
30
       -5.960250000
11
       14.515070000
21
       12.965650000
31
      -10.952480000
0
LINE
8
1
62
1
10
       21.872410000
20
       30.641460000
30
      -10.082240000
11
       23.868210000
21
       31.180710000
31
      -14.668700000
0
LINE
8
1
62
1
10
       24.640880000
20
       48.921110000
30
      -11.019950000
11
       26.562540000
21
       49.385540000
31
      -15.649070000
0
LINE
8
1
62
1
10
       21.514880000
20
       68.125350000
30
       -9.877730000
11
       23.059080000
21
       68.157700000
31
      -14.654630000
0
LINE
8
1
62
1
10
       14.144060000
20
       87.200020000
30
       -5.718130000
11
       14.415660000
21
       86.973270000
31
      -10.709800000
0
LINE
8
1
62
1
10
        2.484970000
20
       98.531460000
30
       -7.238890000
11
        4.192890000
21
       99.593270000
31
       -2.659180000
0
LINE
8
1
62
1
10
        2.575810000
20
        1.580330000
30
       -7.048200000
11
        5.892970000
21
        4.105370000
31
       -7.914090000
0
LINE
8
1
62
1
10
        5.892970000
20
        4.105370000
30
       -7.914090000
11
        9.023150000
21
        6.832730000
31
       -8.849360000
0
LINE
8
1
62
1
10
        9.023150000
20
        6.832730000
30
       -8.849360000
11
       11.917670000
21
        9.781270000
31
       -9.860480000
0
LINE
8
1
62
1
10
       11.917670000
20
        9.781270000
30
       -9.860480000
11
       14.515070000
21
       12.965650000
31
      -10.952480000
0
LINE
8
1
62
1
10
       14.515070000
20
       12.965650000
30
      -10.952480000
11
       18.362070000
21
       16.710530000
31
      -11.716500000
0
LINE
8
1
62
1
10
       18.362070000
20
       16.710530000
30
      -11.716500000
11
       21.585930000
21
       20.979560000
31
      -12.587460000
0
LINE
8
1
62
1
10
       21.585930000
20
       20.979560000
30
      -12.587460000
11
       23.674480000
21
       25.877300000
31
      -13.586690000
0
LINE
8
1
62
1
10
       23.868210000
20
       31.180710000
30
      -14.668700000
11
       23.674480000
21
       25.877300000
31
      -13.586690000
0
LINE
8
1
62
1
10
       23.868210000
20
       31.180710000
30
      -14.668700000
11
       27.833290000
21
       34.869340000
31
      -14.867330000
0
LINE
8
1
62
1
10
       27.833290000
20
       34.869340000
30
      -14.867330000
11
       30.348860000
21
       39.657330000
31
      -15.125170000
0
LINE
8
1
62
1
10
       29.776610000
20
       45.032350000
30
      -15.414640000
11
       30.348860000
21
       39.657330000
31
      -15.125170000
0
LINE
8
1
62
1
10
       26.562540000
20
       49.385540000
30
      -15.649070000
11
       29.776610000
21
       45.032350000
31
      -15.414640000
0
LINE
8
1
62
1
10
       26.562540000
20
       49.385540000
30
      -15.649070000
11
       29.227990000
21
       54.095340000
31
      -15.399580000
0
LINE
8
1
62
1
10
       29.227990000
20
       54.095340000
30
      -15.399580000
11
       29.357760000
21
       59.501420000
31
      -15.113200000
0
LINE
8
1
62
1
10
       26.869160000
20
       64.306330000
30
      -14.858670000
11
       29.357760000
21
       59.501420000
31
      -15.113200000
0
LINE
8
1
62
1
10
       23.059080000
20
       68.157700000
30
      -14.654630000
11
       26.869160000
21
       64.306330000
31
      -14.858670000
0
LINE
8
1
62
1
10
       23.059080000
20
       68.157700000
30
      -14.654630000
11
       22.698410000
21
       73.450730000
31
      -13.544920000
0
LINE
8
1
62
1
10
       20.806260000
20
       78.423100000
30
      -12.502430000
11
       22.698410000
21
       73.450730000
31
      -13.544920000
0
LINE
8
1
62
1
10
       17.914500000
20
       82.913950000
30
      -11.560890000
11
       20.806260000
21
       78.423100000
31
      -12.502430000
0
LINE
8
1
62
1
10
       14.415660000
20
       86.973270000
30
      -10.709800000
11
       17.914500000
21
       82.913950000
31
      -11.560890000
0
LINE
8
1
62
1
10
       11.791610000
20
       90.179910000
30
       -9.746860000
11
       14.415660000
21
       86.973270000
31
      -10.709800000
0
LINE
8
1
62
1
10
        8.895150000
20
       93.166060000
30
       -8.850120000
11
       11.791610000
21
       90.179910000
31
       -9.746860000
0
LINE
8
1
62
1
10
        5.778820000
20
       95.944510000
30
       -8.015750000
11
        8.895150000
21
       93.166060000
31
       -8.850120000
0
LINE
8
1
62
1
10
        2.484970000
20
       98.531460000
30
       -7.238890000
11
        5.778820000
21
       95.944510000
31
       -8.015750000
0
LINE
8
1
62
1
10
       13.252660000
20
       15.216360000
30
      -15.247910000
11
       14.515070000
21
       12.965650000
31
      -10.952480000
0
LINE
8
1
62
1
10
       22.770090000
20
       32.104710000
30
      -19.491430000
11
       23.868210000
21
       31.180710000
31
      -14.668700000
0
LINE
8
1
62
1
10
       24.838560000
20
       49.544860000
30
      -20.376350000
11
       26.562540000
21
       49.385540000
31
      -15.649070000
0
LINE
8
1
62
1
10
       20.544140000
20
       67.388950000
30
      -18.938040000
11
       23.059080000
21
       68.157700000
31
      -14.654630000
0
LINE
8
1
62
1
10
       13.570940000
20
       84.782690000
30
      -15.132900000
11
       14.415660000
21
       86.973270000
31
      -10.709800000
0
LINE
8
1
62
1
10
        9.742160000
20
       16.878510000
30
      -18.420090000
11
       13.252660000
21
       15.216360000
31
      -15.247910000
0
LINE
8
1
62
1
10
       20.136610000
20
       32.912510000
30
      -23.707620000
11
       22.770090000
21
       32.104710000
31
      -19.491430000
0
LINE
8
1
62
1
10
       21.751190000
20
       49.679080000
30
      -24.358750000
11
       24.838560000
21
       49.544860000
31
      -20.376350000
0
LINE
8
1
62
1
10
       16.886840000
20
       66.778150000
30
      -22.341400000
11
       20.544140000
21
       67.388950000
31
      -18.938040000
0
LINE
8
1
62
1
10
        9.719070000
20
       83.359730000
30
      -18.006030000
11
       13.570940000
21
       84.782690000
31
      -15.132900000
0
LINE
8
1
62
1
10
        9.742160000
20
       16.878510000
30
      -18.420090000
11
       14.324270000
21
       19.677990000
31
      -19.343280000
0
LINE
8
1
62
1
10
       14.324270000
20
       19.677990000
30
      -19.343280000
11
       18.281860000
21
       23.220130000
31
      -20.511370000
0
LINE
8
1
62
1
10
       18.281860000
20
       23.220130000
30
      -20.511370000
11
       20.784650000
21
       27.795990000
31
      -22.020350000
0
LINE
8
1
62
1
10
       20.136610000
20
       32.912510000
30
      -23.707620000
11
       20.784650000
21
       27.795990000
31
      -22.020350000
0
LINE
8
1
62
1
10
       20.136610000
20
       32.912510000
30
      -23.707620000
11
       24.522080000
21
       36.126720000
31
      -23.832440000
0
LINE
8
1
62
1
10
       24.522080000
20
       36.126720000
30
      -23.832440000
11
       27.224260000
21
       40.828900000
31
      -24.015050000
0
LINE
8
1
62
1
10
       25.801500000
20
       46.058730000
30
      -24.218150000
11
       27.224260000
21
       40.828900000
31
      -24.015050000
0
LINE
8
1
62
1
10
       21.751190000
20
       49.679080000
30
      -24.358750000
11
       25.801500000
21
       46.058730000
31
      -24.218150000
0
LINE
8
1
62
1
10
       21.751190000
20
       49.679080000
30
      -24.358750000
11
       24.888410000
21
       54.080380000
31
      -23.839480000
0
LINE
8
1
62
1
10
       24.888410000
20
       54.080380000
30
      -23.839480000
11
       24.706860000
21
       59.464360000
31
      -23.204280000
0
LINE
8
1
62
1
10
       21.380490000
20
       63.727670000
30
      -22.701290000
11
       24.706860000
21
       59.464360000
31
      -23.204280000
0
LINE
8
1
62
1
10
       16.886840000
20
       66.778150000
30
      -22.341400000
11
       21.380490000
21
       63.727670000
31
      -22.701290000
0
LINE
8
1
62
1
10
       16.886840000
20
       66.778150000
30
      -22.341400000
11
       19.295600000
21
       71.478370000
31
      -21.112500000
0
LINE
8
1
62
1
10
       17.883050000
20
       76.541820000
30
      -19.788620000
11
       19.295600000
21
       71.478370000
31
      -21.112500000
0
LINE
8
1
62
1
10
       14.231040000
20
       80.426050000
30
      -18.773070000
11
       17.883050000
21
       76.541820000
31
      -19.788620000
0
LINE
8
1
62
1
10
        9.719070000
20
       83.359730000
30
      -18.006030000
11
       14.231040000
21
       80.426050000
31
      -18.773070000
0
LINE
8
1
62
1
10
        4.907010000
20
       15.387870000
30
      -18.562980000
11
        9.742160000
21
       16.878510000
31
      -18.420090000
0
LINE
8
1
62
1
10
       15.706250000
20
       33.415200000
30
      -26.136430000
11
       20.136610000
21
       32.912510000
31
      -23.707620000
0
LINE
8
1
62
1
10
       17.076150000
20
       49.670710000
30
      -26.371310000
11
       21.751190000
21
       49.679080000
31
      -24.358750000
0
LINE
8
1
62
1
10
       12.012600000
20
       66.796990000
30
      -23.791270000
11
       16.886840000
21
       66.778150000
31
      -22.341400000
0
LINE
8
1
62
1
10
        4.901950000
20
       84.863550000
30
      -18.195480000
11
        9.719070000
21
       83.359730000
31
      -18.006030000
0
LINE
8
1
62
1
10
        0.000000000
20
       14.109980000
30
      -18.685470000
11
        4.907010000
21
       15.387870000
31
      -18.562980000
0
LINE
8
1
62
1
10
       11.024940000
20
       33.823120000
30
      -28.107340000
11
       15.706250000
21
       33.415200000
31
      -26.136430000
0
LINE
8
1
62
1
10
       12.247030000
20
       49.663790000
30
      -28.038410000
11
       17.076150000
21
       49.670710000
31
      -26.371310000
0
LINE
8
1
62
1
10
        7.059860000
20
       66.812880000
30
      -25.014050000
11
       12.012600000
21
       66.796990000
31
      -23.791270000
0
LINE
8
1
62
1
10
        0.000000000
20
       86.109990000
30
      -18.352510000
11
        4.901950000
21
       84.863550000
31
      -18.195480000
0
LINE
8
1
62
1
10
       11.024940000
20
       33.823120000
30
      -28.107340000
11
       15.643980000
21
       36.710250000
31
      -28.094780000
0
LINE
8
1
62
1
10
       15.643980000
20
       36.710250000
30
      -28.094780000
11
       18.492370000
21
       41.332390000
31
      -28.074670000
0
LINE
8
1
62
1
10
       16.621100000
20
       46.426110000
30
      -28.052500000
11
       18.492370000
21
       41.332390000
31
      -28.074670000
0
LINE
8
1
62
1
10
       12.247030000
20
       49.663790000
30
      -28.038410000
11
       16.621100000
21
       46.426110000
31
      -28.052500000
0
LINE
8
1
62
1
10
       12.247030000
20
       49.663790000
30
      -28.038410000
11
       15.239360000
21
       54.135420000
31
      -27.249810000
0
LINE
8
1
62
1
10
       15.239360000
20
       54.135420000
30
      -27.249810000
11
       14.832270000
21
       59.469600000
31
      -26.309090000
0
LINE
8
1
62
1
10
       11.519150000
20
       63.718670000
30
      -25.559740000
11
       14.832270000
21
       59.469600000
31
      -26.309090000
0
LINE
8
1
62
1
10
        7.059860000
20
       66.812880000
30
      -25.014050000
11
       11.519150000
21
       63.718670000
31
      -25.559740000
0
LINE
8
1
62
1
10
        6.052760000
20
       33.300010000
30
      -29.355030000
11
       11.024940000
21
       33.823120000
31
      -28.107340000
0
LINE
8
1
62
1
10
        7.200390000
20
       49.494460000
30
      -29.197600000
11
       12.247030000
21
       49.663790000
31
      -28.038410000
0
LINE
8
1
62
1
10
        0.000000000
20
        0.000000000
30
       -7.006670000
11
        2.575810000
21
        1.580330000
31
       -7.048200000
0
LINE
8
1
62
1
10
        6.052760000
20
       33.300010000
30
      -29.355030000
11
       10.591530000
21
       36.317450000
31
      -29.325690000
0
LINE
8
1
62
1
10
       10.591530000
20
       36.317450000
30
      -29.325690000
11
       13.301150000
21
       41.025350000
31
      -29.279930000
0
LINE
8
1
62
1
10
       11.493520000
20
       46.144930000
30
      -29.230160000
11
       13.301150000
21
       41.025350000
31
      -29.279930000
0
LINE
8
1
62
1
10
        7.200390000
20
       49.494460000
30
      -29.197600000
11
       11.493520000
21
       46.144930000
31
      -29.230160000
0
LINE
8
1
62
1
10
        0.000000000
20
       32.109950000
30
      -30.427150000
11
        6.052760000
21
       33.300010000
31
      -29.355030000
0
LINE
8
1
62
1
10
        0.000000000
20
       50.109920000
30
      -30.438650000
11
        7.200390000
21
       49.494460000
31
      -29.197600000
0
LINE
8
1
62
1
10
        0.000000000
20
       68.109940000
30
      -25.864720000
11
        7.059860000
21
       66.812880000
31
      -25.014050000
0
LINE
8
1
62
1
10
        0.000000000
20
      100.209800000
30
       -6.858570000
11
        2.484970000
21
       98.531460000
31
       -7.238890000
0
LINE
8
2
62
2
10
        0.000000000
20
        0.000000000
30
        5.000000000
11
        6.295480000
21
       12.319180000
31
        0.999960000
0
LINE
8
2
62
2
10
        6.295480000
20
       12.319180000
30
        0.999960000
11
       12.817200000
21
       29.256300000
31
        0.999960000
0
LINE
8
2
62
2
10
       12.817200000
20
       29.256300000
30
        0.999960000
11
       15.340270000
21
       47.096400000
31
        0.999960000
0
LINE
8
2
62
2
10
       13.064270000
20
       64.969620000
30
        0.999960000
11
       15.340270000
21
       47.096400000
31
        0.999960000
0
LINE
8
2
62
2
10
        7.448750000
20
       82.228090000
30
        0.999960000
11
       13.064270000
21
       64.969620000
31
        0.999960000
0
LINE
8
2
62
2
10
        2.059260000
20
       95.561800000
30
        0.258480000
11
        7.448750000
21
       82.228090000
31
        0.999960000
0
LINE
8
1
62
1
10
        4.144110000
20
        1.361050000
30
        2.525000000
11
        0.000000000
21
        0.000000000
31
        5.000000000
0
LINE
8
1
62
1
10
        6.295480000
20
       12.319180000
30
        0.999960000
11
       12.661660000
21
       12.898800000
31
       -1.473170000
0
LINE
8
1
62
1
10
       12.817200000
20
       29.256300000
30
        0.999960000
11
       19.457840000
21
       30.125900000
31
       -5.697240000
0
LINE
8
1
62
1
10
       15.340270000
20
       47.096400000
30
        0.999960000
11
       22.243550000
21
       48.479060000
31
       -6.614040000
0
LINE
8
1
62
1
10
       13.064270000
20
       64.969620000
30
        0.999960000
11
       19.300750000
21
       68.094810000
31
       -5.370660000
0
LINE
8
1
62
1
10
        7.448750000
20
       82.228090000
30
        0.999960000
11
       10.900220000
21
       87.372950000
31
       -1.909900000
0
LINE
8
1
62
1
10
        0.000000000
20
      100.209800000
30
        0.000000000
11
        2.059260000
21
       95.561800000
31
        0.258480000
0
LINE
8
1
62
1
10
        4.144110000
20
        1.361050000
30
        2.525000000
11
        4.144110000
21
        1.361050000
31
        2.525000000
0
LINE
8
1
62
1
10
        4.144110000
20
        1.361050000
30
        2.525000000
11
        4.144110000
21
        1.361050000
31
        2.525000000
0
LINE
8
1
62
1
10
        4.144110000
20
        1.361050000
30
        2.525000000
11
        4.144110000
21
        1.361050000
31
        2.525000000
0
LINE
8
1
62
1
10
        2.059260000
20
       95.561800000
30
        0.258480000
11
        2.059260000
21
       95.561800000
31
        0.258480000
0
LINE
8
1
62
1
10
        2.059260000
20
       95.561800000
30
        0.258480000
11
        2.059260000
21
       95.561800000
31
        0.258480000
0
LINE
8
1
62
1
10
        2.059260000
20
       95.561800000
30
        0.258480000
11
        2.059260000
21
       95.561800000
31
        0.258480000
0
LINE
8
1
62
1
10
        2.575810000
20
        1.580330000
30
       -7.048200000
11
        2.575810000
21
        1.580330000
31
       -7.048200000
0
LINE
8
1
62
1
10
        2.575810000
20
        1.580330000
30
       -7.048200000
11
        2.575810000
21
        1.580330000
31
       -7.048200000
0
LINE
8
1
62
1
10
        2.575810000
20
        1.580330000
30
       -7.048200000
11
        2.575810000
21
        1.580330000
31
       -7.048200000
0
LINE
8
1
62
1
10
        2.484970000
20
       98.531460000
30
       -7.238890000
11
        2.484970000
21
       98.531460000
31
       -7.238890000
0
LINE
8
1
62
1
10
        2.484970000
20
       98.531460000
30
       -7.238890000
11
        2.484970000
21
       98.531460000
31
       -7.238890000
0
LINE
8
1
62
1
10
        2.484970000
20
       98.531460000
30
       -7.238890000
11
        2.484970000
21
       98.531460000
31
       -7.238890000
0
LINE
8
1
62
1
10
        6.295480000
20
       12.319180000
30
        0.999960000
11
        6.295480000
21
       12.319180000
31
        0.999960000
0
LINE
8
1
62
1
10
        6.295480000
20
       12.319180000
30
        0.999960000
11
        6.295480000
21
       12.319180000
31
        0.999960000
0
LINE
8
1
62
1
10
        7.448750000
20
       82.228090000
30
        0.999960000
11
        7.448750000
21
       82.228090000
31
        0.999960000
0
LINE
8
1
62
1
10
        7.448750000
20
       82.228090000
30
        0.999960000
11
        7.448750000
21
       82.228090000
31
        0.999960000
0
LINE
8
1
62
1
10
        7.967910000
20
        3.088820000
30
        1.926280000
11
        7.967910000
21
        3.088820000
31
        1.926280000
0
LINE
8
1
62
1
10
        7.967910000
20
        3.088820000
30
        1.926280000
11
        7.967910000
21
        3.088820000
31
        1.926280000
0
LINE
8
1
62
1
10
        7.967910000
20
        3.088820000
30
        1.926280000
11
        7.967910000
21
        3.088820000
31
        1.926280000
0
LINE
8
1
62
1
10
        3.104370000
20
       97.327050000
30
       -0.428910000
11
        3.104370000
21
       97.327050000
31
       -0.428910000
0
LINE
8
1
62
1
10
        3.104370000
20
       97.327050000
30
       -0.428910000
11
        3.104370000
21
       97.327050000
31
       -0.428910000
0
LINE
8
1
62
1
10
        3.104370000
20
       97.327050000
30
       -0.428910000
11
        3.104370000
21
       97.327050000
31
       -0.428910000
0
LINE
8
1
62
1
10
        4.579140000
20
        1.475260000
30
       -2.460970000
11
        4.579140000
21
        1.475260000
31
       -2.460970000
0
LINE
8
1
62
1
10
        4.579140000
20
        1.475260000
30
       -2.460970000
11
        4.579140000
21
        1.475260000
31
       -2.460970000
0
LINE
8
1
62
1
10
        4.579140000
20
        1.475260000
30
       -2.460970000
11
        4.579140000
21
        1.475260000
31
       -2.460970000
0
LINE
8
1
62
1
10
        4.192890000
20
       99.593270000
30
       -2.659180000
11
        4.192890000
21
       99.593270000
31
       -2.659180000
0
LINE
8
1
62
1
10
        4.192890000
20
       99.593270000
30
       -2.659180000
11
        4.192890000
21
       99.593270000
31
       -2.659180000
0
LINE
8
1
62
1
10
        4.192890000
20
       99.593270000
30
       -2.659180000
11
        4.192890000
21
       99.593270000
31
       -2.659180000
0
LINE
8
1
62
1
10
        4.907010000
20
       15.387870000
30
      -18.562980000
11
        4.907010000
21
       15.387870000
31
      -18.562980000
0
LINE
8
1
62
1
10
        4.907010000
20
       15.387870000
30
      -18.562980000
11
        4.907010000
21
       15.387870000
31
      -18.562980000
0
LINE
8
1
62
1
10
        4.907010000
20
       15.387870000
30
      -18.562980000
11
        4.907010000
21
       15.387870000
31
      -18.562980000
0
LINE
8
1
62
1
10
        4.901950000
20
       84.863550000
30
      -18.195480000
11
        4.901950000
21
       84.863550000
31
      -18.195480000
0
LINE
8
1
62
1
10
        4.901950000
20
       84.863550000
30
      -18.195480000
11
        4.901950000
21
       84.863550000
31
      -18.195480000
0
LINE
8
1
62
1
10
        4.901950000
20
       84.863550000
30
      -18.195480000
11
        4.901950000
21
       84.863550000
31
      -18.195480000
0
LINE
8
1
62
1
10
       12.817200000
20
       29.256300000
30
        0.999960000
11
       12.817200000
21
       29.256300000
31
        0.999960000
0
LINE
8
1
62
1
10
       12.817200000
20
       29.256300000
30
        0.999960000
11
       12.817200000
21
       29.256300000
31
        0.999960000
0
LINE
8
1
62
1
10
       13.064270000
20
       64.969620000
30
        0.999960000
11
       13.064270000
21
       64.969620000
31
        0.999960000
0
LINE
8
1
62
1
10
       13.064270000
20
       64.969620000
30
        0.999960000
11
       13.064270000
21
       64.969620000
31
        0.999960000
0
LINE
8
1
62
1
10
        6.052760000
20
       33.300010000
30
      -29.355030000
11
        6.052760000
21
       33.300010000
31
      -29.355030000
0
LINE
8
1
62
1
10
        6.052760000
20
       33.300010000
30
      -29.355030000
11
        6.052760000
21
       33.300010000
31
      -29.355030000
0
LINE
8
1
62
1
10
        6.052760000
20
       33.300010000
30
      -29.355030000
11
        6.052760000
21
       33.300010000
31
      -29.355030000
0
LINE
8
1
62
1
10
       11.354450000
20
        5.493380000
30
        1.093030000
11
       11.354450000
21
        5.493380000
31
        1.093030000
0
LINE
8
1
62
1
10
       11.354450000
20
        5.493380000
30
        1.093030000
11
       11.354450000
21
        5.493380000
31
        1.093030000
0
LINE
8
1
62
1
10
       11.354450000
20
        5.493380000
30
        1.093030000
11
       11.354450000
21
        5.493380000
31
        1.093030000
0
LINE
8
1
62
1
10
        5.991310000
20
       94.233750000
30
       -0.889140000
11
        5.991310000
21
       94.233750000
31
       -0.889140000
0
LINE
8
1
62
1
10
        5.991310000
20
       94.233750000
30
       -0.889140000
11
        5.991310000
21
       94.233750000
31
       -0.889140000
0
LINE
8
1
62
1
10
        5.991310000
20
       94.233750000
30
       -0.889140000
11
        5.991310000
21
       94.233750000
31
       -0.889140000
0
LINE
8
1
62
1
10
       15.340270000
20
       47.096400000
30
        0.999960000
11
       15.340270000
21
       47.096400000
31
        0.999960000
0
LINE
8
1
62
1
10
       15.340270000
20
       47.096400000
30
        0.999960000
11
       15.340270000
21
       47.096400000
31
        0.999960000
0
LINE
8
1
62
1
10
        5.892970000
20
        4.105370000
30
       -7.914090000
11
        5.892970000
21
        4.105370000
31
       -7.914090000
0
LINE
8
1
62
1
10
        5.892970000
20
        4.105370000
30
       -7.914090000
11
        5.892970000
21
        4.105370000
31
       -7.914090000
0
LINE
8
1
62
1
10
        5.892970000
20
        4.105370000
30
       -7.914090000
11
        5.892970000
21
        4.105370000
31
       -7.914090000
0
LINE
8
1
62
1
10
        5.778820000
20
       95.944510000
30
       -8.015750000
11
        5.778820000
21
       95.944510000
31
       -8.015750000
0
LINE
8
1
62
1
10
        5.778820000
20
       95.944510000
30
       -8.015750000
11
        5.778820000
21
       95.944510000
31
       -8.015750000
0
LINE
8
1
62
1
10
        5.778820000
20
       95.944510000
30
       -8.015750000
11
        5.778820000
21
       95.944510000
31
       -8.015750000
0
LINE
8
1
62
1
10
        7.200390000
20
       49.494460000
30
      -29.197600000
11
        7.200390000
21
       49.494460000
31
      -29.197600000
0
LINE
8
1
62
1
10
        7.200390000
20
       49.494460000
30
      -29.197600000
11
        7.200390000
21
       49.494460000
31
      -29.197600000
0
LINE
8
1
62
1
10
        7.200390000
20
       49.494460000
30
      -29.197600000
11
        7.200390000
21
       49.494460000
31
      -29.197600000
0
LINE
8
1
62
1
10
        7.059860000
20
       66.812880000
30
      -25.014050000
11
        7.059860000
21
       66.812880000
31
      -25.014050000
0
LINE
8
1
62
1
10
        7.059860000
20
       66.812880000
30
      -25.014050000
11
        7.059860000
21
       66.812880000
31
      -25.014050000
0
LINE
8
1
62
1
10
        7.059860000
20
       66.812880000
30
      -25.014050000
11
        7.059860000
21
       66.812880000
31
      -25.014050000
0
LINE
8
1
62
1
10
       13.452220000
20
        8.968750000
30
       -0.111280000
11
       13.452220000
21
        8.968750000
31
       -0.111280000
0
LINE
8
1
62
1
10
       13.452220000
20
        8.968750000
30
       -0.111280000
11
       13.452220000
21
        8.968750000
31
       -0.111280000
0
LINE
8
1
62
1
10
       13.452220000
20
        8.968750000
30
       -0.111280000
11
       13.452220000
21
        8.968750000
31
       -0.111280000
0
LINE
8
1
62
1
10
        8.610140000
20
       90.917460000
30
       -1.382540000
11
        8.610140000
21
       90.917460000
31
       -1.382540000
0
LINE
8
1
62
1
10
        8.610140000
20
       90.917460000
30
       -1.382540000
11
        8.610140000
21
       90.917460000
31
       -1.382540000
0
LINE
8
1
62
1
10
        8.610140000
20
       90.917460000
30
       -1.382540000
11
        8.610140000
21
       90.917460000
31
       -1.382540000
0
LINE
8
1
62
1
10
       12.661660000
20
       12.898800000
30
       -1.473170000
11
       12.661660000
21
       12.898800000
31
       -1.473170000
0
LINE
8
1
62
1
10
       12.661660000
20
       12.898800000
30
       -1.473170000
11
       12.661660000
21
       12.898800000
31
       -1.473170000
0
LINE
8
1
62
1
10
       12.661660000
20
       12.898800000
30
       -1.473170000
11
       12.661660000
21
       12.898800000
31
       -1.473170000
0
LINE
8
1
62
1
10
       10.900220000
20
       87.372950000
30
       -1.909900000
11
       10.900220000
21
       87.372950000
31
       -1.909900000
0
LINE
8
1
62
1
10
       10.900220000
20
       87.372950000
30
       -1.909900000
11
       10.900220000
21
       87.372950000
31
       -1.909900000
0
LINE
8
1
62
1
10
       10.900220000
20
       87.372950000
30
       -1.909900000
11
       10.900220000
21
       87.372950000
31
       -1.909900000
0
LINE
8
1
62
1
10
        9.742160000
20
       16.878510000
30
      -18.420090000
11
        9.742160000
21
       16.878510000
31
      -18.420090000
0
LINE
8
1
62
1
10
        9.742160000
20
       16.878510000
30
      -18.420090000
11
        9.742160000
21
       16.878510000
31
      -18.420090000
0
LINE
8
1
62
1
10
        9.742160000
20
       16.878510000
30
      -18.420090000
11
        9.742160000
21
       16.878510000
31
      -18.420090000
0
LINE
8
1
62
1
10
        9.719070000
20
       83.359730000
30
      -18.006030000
11
        9.719070000
21
       83.359730000
31
      -18.006030000
0
LINE
8
1
62
1
10
        9.719070000
20
       83.359730000
30
      -18.006030000
11
        9.719070000
21
       83.359730000
31
      -18.006030000
0
LINE
8
1
62
1
10
        9.719070000
20
       83.359730000
30
      -18.006030000
11
        9.719070000
21
       83.359730000
31
      -18.006030000
0
LINE
8
1
62
1
10
        9.023150000
20
        6.832730000
30
       -8.849360000
11
        9.023150000
21
        6.832730000
31
       -8.849360000
0
LINE
8
1
62
1
10
        9.023150000
20
        6.832730000
30
       -8.849360000
11
        9.023150000
21
        6.832730000
31
       -8.849360000
0
LINE
8
1
62
1
10
        9.023150000
20
        6.832730000
30
       -8.849360000
11
        9.023150000
21
        6.832730000
31
       -8.849360000
0
LINE
8
1
62
1
10
       11.024940000
20
       33.823120000
30
      -28.107340000
11
       11.024940000
21
       33.823120000
31
      -28.107340000
0
LINE
8
1
62
1
10
       11.024940000
20
       33.823120000
30
      -28.107340000
11
       11.024940000
21
       33.823120000
31
      -28.107340000
0
LINE
8
1
62
1
10
       11.024940000
20
       33.823120000
30
      -28.107340000
11
       11.024940000
21
       33.823120000
31
      -28.107340000
0
LINE
8
1
62
1
10
        8.895150000
20
       93.166060000
30
       -8.850120000
11
        8.895150000
21
       93.166060000
31
       -8.850120000
0
LINE
8
1
62
1
10
        8.895150000
20
       93.166060000
30
       -8.850120000
11
        8.895150000
21
       93.166060000
31
       -8.850120000
0
LINE
8
1
62
1
10
        8.895150000
20
       93.166060000
30
       -8.850120000
11
        8.895150000
21
       93.166060000
31
       -8.850120000
0
LINE
8
1
62
1
10
       10.591530000
20
       36.317450000
30
      -29.325690000
11
       10.591530000
21
       36.317450000
31
      -29.325690000
0
LINE
8
1
62
1
10
       10.591530000
20
       36.317450000
30
      -29.325690000
11
       10.591530000
21
       36.317450000
31
      -29.325690000
0
LINE
8
1
62
1
10
       10.591530000
20
       36.317450000
30
      -29.325690000
11
       10.591530000
21
       36.317450000
31
      -29.325690000
0
LINE
8
1
62
1
10
       11.493520000
20
       46.144930000
30
      -29.230160000
11
       11.493520000
21
       46.144930000
31
      -29.230160000
0
LINE
8
1
62
1
10
       11.493520000
20
       46.144930000
30
      -29.230160000
11
       11.493520000
21
       46.144930000
31
      -29.230160000
0
LINE
8
1
62
1
10
       11.493520000
20
       46.144930000
30
      -29.230160000
11
       11.493520000
21
       46.144930000
31
      -29.230160000
0
LINE
8
1
62
1
10
       12.012600000
20
       66.796990000
30
      -23.791270000
11
       12.012600000
21
       66.796990000
31
      -23.791270000
0
LINE
8
1
62
1
10
       12.012600000
20
       66.796990000
30
      -23.791270000
11
       12.012600000
21
       66.796990000
31
      -23.791270000
0
LINE
8
1
62
1
10
       12.012600000
20
       66.796990000
30
      -23.791270000
11
       12.012600000
21
       66.796990000
31
      -23.791270000
0
LINE
8
1
62
1
10
       12.247030000
20
       49.663790000
30
      -28.038410000
11
       12.247030000
21
       49.663790000
31
      -28.038410000
0
LINE
8
1
62
1
10
       12.247030000
20
       49.663790000
30
      -28.038410000
11
       12.247030000
21
       49.663790000
31
      -28.038410000
0
LINE
8
1
62
1
10
       12.247030000
20
       49.663790000
30
      -28.038410000
11
       12.247030000
21
       49.663790000
31
      -28.038410000
0
LINE
8
1
62
1
10
       11.519150000
20
       63.718670000
30
      -25.559740000
11
       11.519150000
21
       63.718670000
31
      -25.559740000
0
LINE
8
1
62
1
10
       11.519150000
20
       63.718670000
30
      -25.559740000
11
       11.519150000
21
       63.718670000
31
      -25.559740000
0
LINE
8
1
62
1
10
       11.519150000
20
       63.718670000
30
      -25.559740000
11
       11.519150000
21
       63.718670000
31
      -25.559740000
0
LINE
8
1
62
1
10
       14.882070000
20
       12.930460000
30
       -5.960250000
11
       14.882070000
21
       12.930460000
31
       -5.960250000
0
LINE
8
1
62
1
10
       14.882070000
20
       12.930460000
30
       -5.960250000
11
       14.882070000
21
       12.930460000
31
       -5.960250000
0
LINE
8
1
62
1
10
       14.882070000
20
       12.930460000
30
       -5.960250000
11
       14.882070000
21
       12.930460000
31
       -5.960250000
0
LINE
8
1
62
1
10
       14.144060000
20
       87.200020000
30
       -5.718130000
11
       14.144060000
21
       87.200020000
31
       -5.718130000
0
LINE
8
1
62
1
10
       14.144060000
20
       87.200020000
30
       -5.718130000
11
       14.144060000
21
       87.200020000
31
       -5.718130000
0
LINE
8
1
62
1
10
       14.144060000
20
       87.200020000
30
       -5.718130000
11
       14.144060000
21
       87.200020000
31
       -5.718130000
0
LINE
8
1
62
1
10
       14.137640000
20
       83.092120000
30
       -2.678400000
11
       14.137640000
21
       83.092120000
31
       -2.678400000
0
LINE
8
1
62
1
10
       14.137640000
20
       83.092120000
30
       -2.678400000
11
       14.137640000
21
       83.092120000
31
       -2.678400000
0
LINE
8
1
62
1
10
       14.137640000
20
       83.092120000
30
       -2.678400000
11
       14.137640000
21
       83.092120000
31
       -2.678400000
0
LINE
8
1
62
1
10
       17.048010000
20
       15.974700000
30
       -2.227360000
11
       17.048010000
21
       15.974700000
31
       -2.227360000
0
LINE
8
1
62
1
10
       17.048010000
20
       15.974700000
30
       -2.227360000
11
       17.048010000
21
       15.974700000
31
       -2.227360000
0
LINE
8
1
62
1
10
       17.048010000
20
       15.974700000
30
       -2.227360000
11
       17.048010000
21
       15.974700000
31
       -2.227360000
0
LINE
8
1
62
1
10
       13.301150000
20
       41.025350000
30
      -29.279930000
11
       13.301150000
21
       41.025350000
31
      -29.279930000
0
LINE
8
1
62
1
10
       13.301150000
20
       41.025350000
30
      -29.279930000
11
       13.301150000
21
       41.025350000
31
      -29.279930000
0
LINE
8
1
62
1
10
       13.301150000
20
       41.025350000
30
      -29.279930000
11
       13.301150000
21
       41.025350000
31
      -29.279930000
0
LINE
8
1
62
1
10
       11.917670000
20
        9.781270000
30
       -9.860480000
11
       11.917670000
21
        9.781270000
31
       -9.860480000
0
LINE
8
1
62
1
10
       11.917670000
20
        9.781270000
30
       -9.860480000
11
       11.917670000
21
        9.781270000
31
       -9.860480000
0
LINE
8
1
62
1
10
       11.917670000
20
        9.781270000
30
       -9.860480000
11
       11.917670000
21
        9.781270000
31
       -9.860480000
0
LINE
8
1
62
1
10
       11.791610000
20
       90.179910000
30
       -9.746860000
11
       11.791610000
21
       90.179910000
31
       -9.746860000
0
LINE
8
1
62
1
10
       11.791610000
20
       90.179910000
30
       -9.746860000
11
       11.791610000
21
       90.179910000
31
       -9.746860000
0
LINE
8
1
62
1
10
       11.791610000
20
       90.179910000
30
       -9.746860000
11
       11.791610000
21
       90.179910000
31
       -9.746860000
0
LINE
8
1
62
1
10
       13.252660000
20
       15.216360000
30
      -15.247910000
11
       13.252660000
21
       15.216360000
31
      -15.247910000
0
LINE
8
1
62
1
10
       13.252660000
20
       15.216360000
30
      -15.247910000
11
       13.252660000
21
       15.216360000
31
      -15.247910000
0
LINE
8
1
62
1
10
       13.252660000
20
       15.216360000
30
      -15.247910000
11
       13.252660000
21
       15.216360000
31
      -15.247910000
0
LINE
8
1
62
1
10
       13.570940000
20
       84.782690000
30
      -15.132900000
11
       13.570940000
21
       84.782690000
31
      -15.132900000
0
LINE
8
1
62
1
10
       13.570940000
20
       84.782690000
30
      -15.132900000
11
       13.570940000
21
       84.782690000
31
      -15.132900000
0
LINE
8
1
62
1
10
       13.570940000
20
       84.782690000
30
      -15.132900000
11
       13.570940000
21
       84.782690000
31
      -15.132900000
0
LINE
8
1
62
1
10
       19.457840000
20
       30.125900000
30
       -5.697240000
11
       19.457840000
21
       30.125900000
31
       -5.697240000
0
LINE
8
1
62
1
10
       19.457840000
20
       30.125900000
30
       -5.697240000
11
       19.457840000
21
       30.125900000
31
       -5.697240000
0
LINE
8
1
62
1
10
       19.457840000
20
       30.125900000
30
       -5.697240000
11
       19.457840000
21
       30.125900000
31
       -5.697240000
0
LINE
8
1
62
1
10
       19.300750000
20
       68.094810000
30
       -5.370660000
11
       19.300750000
21
       68.094810000
31
       -5.370660000
0
LINE
8
1
62
1
10
       19.300750000
20
       68.094810000
30
       -5.370660000
11
       19.300750000
21
       68.094810000
31
       -5.370660000
0
LINE
8
1
62
1
10
       19.300750000
20
       68.094810000
30
       -5.370660000
11
       19.300750000
21
       68.094810000
31
       -5.370660000
0
LINE
8
1
62
1
10
       15.706250000
20
       33.415200000
30
      -26.136430000
11
       15.706250000
21
       33.415200000
31
      -26.136430000
0
LINE
8
1
62
1
10
       15.706250000
20
       33.415200000
30
      -26.136430000
11
       15.706250000
21
       33.415200000
31
      -26.136430000
0
LINE
8
1
62
1
10
       15.706250000
20
       33.415200000
30
      -26.136430000
11
       15.706250000
21
       33.415200000
31
      -26.136430000
0
LINE
8
1
62
1
10
       15.239360000
20
       54.135420000
30
      -27.249810000
11
       15.239360000
21
       54.135420000
31
      -27.249810000
0
LINE
8
1
62
1
10
       15.239360000
20
       54.135420000
30
      -27.249810000
11
       15.239360000
21
       54.135420000
31
      -27.249810000
0
LINE
8
1
62
1
10
       15.239360000
20
       54.135420000
30
      -27.249810000
11
       15.239360000
21
       54.135420000
31
      -27.249810000
0
LINE
8
1
62
1
10
       14.832270000
20
       59.469600000
30
      -26.309090000
11
       14.832270000
21
       59.469600000
31
      -26.309090000
0
LINE
8
1
62
1
10
       14.832270000
20
       59.469600000
30
      -26.309090000
11
       14.832270000
21
       59.469600000
31
      -26.309090000
0
LINE
8
1
62
1
10
       14.832270000
20
       59.469600000
30
      -26.309090000
11
       14.832270000
21
       59.469600000
31
      -26.309090000
0
LINE
8
1
62
1
10
       15.643980000
20
       36.710250000
30
      -28.094780000
11
       15.643980000
21
       36.710250000
31
      -28.094780000
0
LINE
8
1
62
1
10
       15.643980000
20
       36.710250000
30
      -28.094780000
11
       15.643980000
21
       36.710250000
31
      -28.094780000
0
LINE
8
1
62
1
10
       15.643980000
20
       36.710250000
30
      -28.094780000
11
       15.643980000
21
       36.710250000
31
      -28.094780000
0
LINE
8
1
62
1
10
       14.324270000
20
       19.677990000
30
      -19.343280000
11
       14.324270000
21
       19.677990000
31
      -19.343280000
0
LINE
8
1
62
1
10
       14.324270000
20
       19.677990000
30
      -19.343280000
11
       14.324270000
21
       19.677990000
31
      -19.343280000
0
LINE
8
1
62
1
10
       14.324270000
20
       19.677990000
30
      -19.343280000
11
       14.324270000
21
       19.677990000
31
      -19.343280000
0
LINE
8
1
62
1
10
       14.231040000
20
       80.426050000
30
      -18.773070000
11
       14.231040000
21
       80.426050000
31
      -18.773070000
0
LINE
8
1
62
1
10
       14.231040000
20
       80.426050000
30
      -18.773070000
11
       14.231040000
21
       80.426050000
31
      -18.773070000
0
LINE
8
1
62
1
10
       14.231040000
20
       80.426050000
30
      -18.773070000
11
       14.231040000
21
       80.426050000
31
      -18.773070000
0
LINE
8
1
62
1
10
       14.515070000
20
       12.965650000
30
      -10.952480000
11
       14.515070000
21
       12.965650000
31
      -10.952480000
0
LINE
8
1
62
1
10
       14.515070000
20
       12.965650000
30
      -10.952480000
11
       14.515070000
21
       12.965650000
31
      -10.952480000
0
LINE
8
1
62
1
10
       14.515070000
20
       12.965650000
30
      -10.952480000
11
       14.515070000
21
       12.965650000
31
      -10.952480000
0
LINE
8
1
62
1
10
       14.415660000
20
       86.973270000
30
      -10.709800000
11
       14.415660000
21
       86.973270000
31
      -10.709800000
0
LINE
8
1
62
1
10
       14.415660000
20
       86.973270000
30
      -10.709800000
11
       14.415660000
21
       86.973270000
31
      -10.709800000
0
LINE
8
1
62
1
10
       14.415660000
20
       86.973270000
30
      -10.709800000
11
       14.415660000
21
       86.973270000
31
      -10.709800000
0
LINE
8
1
62
1
10
       17.076150000
20
       49.670710000
30
      -26.371310000
11
       17.076150000
21
       49.670710000
31
      -26.371310000
0
LINE
8
1
62
1
10
       17.076150000
20
       49.670710000
30
      -26.371310000
11
       17.076150000
21
       49.670710000
31
      -26.371310000
0
LINE
8
1
62
1
10
       17.076150000
20
       49.670710000
30
      -26.371310000
11
       17.076150000
21
       49.670710000
31
      -26.371310000
0
LINE
8
1
62
1
10
       16.886840000
20
       66.778150000
30
      -22.341400000
11
       16.886840000
21
       66.778150000
31
      -22.341400000
0
LINE
8
1
62
1
10
       16.886840000
20
       66.778150000
30
      -22.341400000
11
       16.886840000
21
       66.778150000
31
      -22.341400000
0
LINE
8
1
62
1
10
       16.886840000
20
       66.778150000
30
      -22.341400000
11
       16.886840000
21
       66.778150000
31
      -22.341400000
0
LINE
8
1
62
1
10
       16.621100000
20
       46.426110000
30
      -28.052500000
11
       16.621100000
21
       46.426110000
31
      -28.052500000
0
LINE
8
1
62
1
10
       16.621100000
20
       46.426110000
30
      -28.052500000
11
       16.621100000
21
       46.426110000
31
      -28.052500000
0
LINE
8
1
62
1
10
       16.621100000
20
       46.426110000
30
      -28.052500000
11
       16.621100000
21
       46.426110000
31
      -28.052500000
0
LINE
8
1
62
1
10
       16.733280000
20
       78.408960000
30
       -3.519110000
11
       16.733280000
21
       78.408960000
31
       -3.519110000
0
LINE
8
1
62
1
10
       16.733280000
20
       78.408960000
30
       -3.519110000
11
       16.733280000
21
       78.408960000
31
       -3.519110000
0
LINE
8
1
62
1
10
       16.733280000
20
       78.408960000
30
       -3.519110000
11
       16.733280000
21
       78.408960000
31
       -3.519110000
0
LINE
8
1
62
1
10
       20.403330000
20
       20.093450000
30
       -3.237270000
11
       20.403330000
21
       20.093450000
31
       -3.237270000
0
LINE
8
1
62
1
10
       20.403330000
20
       20.093450000
30
       -3.237270000
11
       20.403330000
21
       20.093450000
31
       -3.237270000
0
LINE
8
1
62
1
10
       20.403330000
20
       20.093450000
30
       -3.237270000
11
       20.403330000
21
       20.093450000
31
       -3.237270000
0
LINE
8
1
62
1
10
       22.243550000
20
       48.479060000
30
       -6.614040000
11
       22.243550000
21
       48.479060000
31
       -6.614040000
0
LINE
8
1
62
1
10
       22.243550000
20
       48.479060000
30
       -6.614040000
11
       22.243550000
21
       48.479060000
31
       -6.614040000
0
LINE
8
1
62
1
10
       22.243550000
20
       48.479060000
30
       -6.614040000
11
       22.243550000
21
       48.479060000
31
       -6.614040000
0
LINE
8
1
62
1
10
       18.508230000
20
       73.369940000
30
       -4.423700000
11
       18.508230000
21
       73.369940000
31
       -4.423700000
0
LINE
8
1
62
1
10
       18.508230000
20
       73.369940000
30
       -4.423700000
11
       18.508230000
21
       73.369940000
31
       -4.423700000
0
LINE
8
1
62
1
10
       18.508230000
20
       73.369940000
30
       -4.423700000
11
       18.508230000
21
       73.369940000
31
       -4.423700000
0
LINE
8
1
62
1
10
       21.450260000
20
       25.244600000
30
       -4.500330000
11
       21.450260000
21
       25.244600000
31
       -4.500330000
0
LINE
8
1
62
1
10
       21.450260000
20
       25.244600000
30
       -4.500330000
11
       21.450260000
21
       25.244600000
31
       -4.500330000
0
LINE
8
1
62
1
10
       21.450260000
20
       25.244600000
30
       -4.500330000
11
       21.450260000
21
       25.244600000
31
       -4.500330000
0
LINE
8
1
62
1
10
       21.872410000
20
       30.641460000
30
      -10.082240000
11
       21.872410000
21
       30.641460000
31
      -10.082240000
0
LINE
8
1
62
1
10
       21.872410000
20
       30.641460000
30
      -10.082240000
11
       21.872410000
21
       30.641460000
31
      -10.082240000
0
LINE
8
1
62
1
10
       21.872410000
20
       30.641460000
30
      -10.082240000
11
       21.872410000
21
       30.641460000
31
      -10.082240000
0
LINE
8
1
62
1
10
       21.514880000
20
       68.125350000
30
       -9.877730000
11
       21.514880000
21
       68.125350000
31
       -9.877730000
0
LINE
8
1
62
1
10
       21.514880000
20
       68.125350000
30
       -9.877730000
11
       21.514880000
21
       68.125350000
31
       -9.877730000
0
LINE
8
1
62
1
10
       21.514880000
20
       68.125350000
30
       -9.877730000
11
       21.514880000
21
       68.125350000
31
       -9.877730000
0
LINE
8
1
62
1
10
       18.492370000
20
       41.332390000
30
      -28.074670000
11
       18.492370000
21
       41.332390000
31
      -28.074670000
0
LINE
8
1
62
1
10
       18.492370000
20
       41.332390000
30
      -28.074670000
11
       18.492370000
21
       41.332390000
31
      -28.074670000
0
LINE
8
1
62
1
10
       18.492370000
20
       41.332390000
30
      -28.074670000
11
       18.492370000
21
       41.332390000
31
      -28.074670000
0
LINE
8
1
62
1
10
       20.136610000
20
       32.912510000
30
      -23.707620000
11
       20.136610000
21
       32.912510000
31
      -23.707620000
0
LINE
8
1
62
1
10
       20.136610000
20
       32.912510000
30
      -23.707620000
11
       20.136610000
21
       32.912510000
31
      -23.707620000
0
LINE
8
1
62
1
10
       20.136610000
20
       32.912510000
30
      -23.707620000
11
       20.136610000
21
       32.912510000
31
      -23.707620000
0
LINE
8
1
62
1
10
       20.544140000
20
       67.388950000
30
      -18.938040000
11
       20.544140000
21
       67.388950000
31
      -18.938040000
0
LINE
8
1
62
1
10
       20.544140000
20
       67.388950000
30
      -18.938040000
11
       20.544140000
21
       67.388950000
31
      -18.938040000
0
LINE
8
1
62
1
10
       20.544140000
20
       67.388950000
30
      -18.938040000
11
       20.544140000
21
       67.388950000
31
      -18.938040000
0
LINE
8
1
62
1
10
       22.658520000
20
       63.860250000
30
       -5.639080000
11
       22.658520000
21
       63.860250000
31
       -5.639080000
0
LINE
8
1
62
1
10
       22.658520000
20
       63.860250000
30
       -5.639080000
11
       22.658520000
21
       63.860250000
31
       -5.639080000
0
LINE
8
1
62
1
10
       22.658520000
20
       63.860250000
30
       -5.639080000
11
       22.658520000
21
       63.860250000
31
       -5.639080000
0
LINE
8
1
62
1
10
       23.424430000
20
       33.798530000
30
       -5.880690000
11
       23.424430000
21
       33.798530000
31
       -5.880690000
0
LINE
8
1
62
1
10
       23.424430000
20
       33.798530000
30
       -5.880690000
11
       23.424430000
21
       33.798530000
31
       -5.880690000
0
LINE
8
1
62
1
10
       23.424430000
20
       33.798530000
30
       -5.880690000
11
       23.424430000
21
       33.798530000
31
       -5.880690000
0
LINE
8
1
62
1
10
       17.883050000
20
       76.541820000
30
      -19.788620000
11
       17.883050000
21
       76.541820000
31
      -19.788620000
0
LINE
8
1
62
1
10
       17.883050000
20
       76.541820000
30
      -19.788620000
11
       17.883050000
21
       76.541820000
31
      -19.788620000
0
LINE
8
1
62
1
10
       17.883050000
20
       76.541820000
30
      -19.788620000
11
       17.883050000
21
       76.541820000
31
      -19.788620000
0
LINE
8
1
62
1
10
       18.281860000
20
       23.220130000
30
      -20.511370000
11
       18.281860000
21
       23.220130000
31
      -20.511370000
0
LINE
8
1
62
1
10
       18.281860000
20
       23.220130000
30
      -20.511370000
11
       18.281860000
21
       23.220130000
31
      -20.511370000
0
LINE
8
1
62
1
10
       18.281860000
20
       23.220130000
30
      -20.511370000
11
       18.281860000
21
       23.220130000
31
      -20.511370000
0
LINE
8
1
62
1
10
       19.295600000
20
       71.478370000
30
      -21.112500000
11
       19.295600000
21
       71.478370000
31
      -21.112500000
0
LINE
8
1
62
1
10
       19.295600000
20
       71.478370000
30
      -21.112500000
11
       19.295600000
21
       71.478370000
31
      -21.112500000
0
LINE
8
1
62
1
10
       19.295600000
20
       71.478370000
30
      -21.112500000
11
       19.295600000
21
       71.478370000
31
      -21.112500000
0
LINE
8
1
62
1
10
       24.640880000
20
       48.921110000
30
      -11.019950000
11
       24.640880000
21
       48.921110000
31
      -11.019950000
0
LINE
8
1
62
1
10
       24.640880000
20
       48.921110000
30
      -11.019950000
11
       24.640880000
21
       48.921110000
31
      -11.019950000
0
LINE
8
1
62
1
10
       24.640880000
20
       48.921110000
30
      -11.019950000
11
       24.640880000
21
       48.921110000
31
      -11.019950000
0
LINE
8
1
62
1
10
       18.362070000
20
       16.710530000
30
      -11.716500000
11
       18.362070000
21
       16.710530000
31
      -11.716500000
0
LINE
8
1
62
1
10
       18.362070000
20
       16.710530000
30
      -11.716500000
11
       18.362070000
21
       16.710530000
31
      -11.716500000
0
LINE
8
1
62
1
10
       18.362070000
20
       16.710530000
30
      -11.716500000
11
       18.362070000
21
       16.710530000
31
      -11.716500000
0
LINE
8
1
62
1
10
       21.751190000
20
       49.679080000
30
      -24.358750000
11
       21.751190000
21
       49.679080000
31
      -24.358750000
0
LINE
8
1
62
1
10
       21.751190000
20
       49.679080000
30
      -24.358750000
11
       21.751190000
21
       49.679080000
31
      -24.358750000
0
LINE
8
1
62
1
10
       21.751190000
20
       49.679080000
30
      -24.358750000
11
       21.751190000
21
       49.679080000
31
      -24.358750000
0
LINE
8
1
62
1
10
       22.770090000
20
       32.104710000
30
      -19.491430000
11
       22.770090000
21
       32.104710000
31
      -19.491430000
0
LINE
8
1
62
1
10
       22.770090000
20
       32.104710000
30
      -19.491430000
11
       22.770090000
21
       32.104710000
31
      -19.491430000
0
LINE
8
1
62
1
10
       22.770090000
20
       32.104710000
30
      -19.491430000
11
       22.770090000
21
       32.104710000
31
      -19.491430000
0
LINE
8
1
62
1
10
       17.914500000
20
       82.913950000
30
      -11.560890000
11
       17.914500000
21
       82.913950000
31
      -11.560890000
0
LINE
8
1
62
1
10
       17.914500000
20
       82.913950000
30
      -11.560890000
11
       17.914500000
21
       82.913950000
31
      -11.560890000
0
LINE
8
1
62
1
10
       17.914500000
20
       82.913950000
30
      -11.560890000
11
       17.914500000
21
       82.913950000
31
      -11.560890000
0
LINE
8
1
62
1
10
       24.423010000
20
       53.420030000
30
       -6.300850000
11
       24.423010000
21
       53.420030000
31
       -6.300850000
0
LINE
8
1
62
1
10
       24.423010000
20
       53.420030000
30
       -6.300850000
11
       24.423010000
21
       53.420030000
31
       -6.300850000
0
LINE
8
1
62
1
10
       24.423010000
20
       53.420030000
30
       -6.300850000
11
       24.423010000
21
       53.420030000
31
       -6.300850000
0
LINE
8
1
62
1
10
       25.293520000
20
       44.019580000
30
       -6.391260000
11
       25.293520000
21
       44.019580000
31
       -6.391260000
0
LINE
8
1
62
1
10
       25.293520000
20
       44.019580000
30
       -6.391260000
11
       25.293520000
21
       44.019580000
31
       -6.391260000
0
LINE
8
1
62
1
10
       25.293520000
20
       44.019580000
30
       -6.391260000
11
       25.293520000
21
       44.019580000
31
       -6.391260000
0
LINE
8
1
62
1
10
       23.059080000
20
       68.157700000
30
      -14.654630000
11
       23.059080000
21
       68.157700000
31
      -14.654630000
0
LINE
8
1
62
1
10
       23.059080000
20
       68.157700000
30
      -14.654630000
11
       23.059080000
21
       68.157700000
31
      -14.654630000
0
LINE
8
1
62
1
10
       23.059080000
20
       68.157700000
30
      -14.654630000
11
       23.059080000
21
       68.157700000
31
      -14.654630000
0
LINE
8
1
62
1
10
       23.868210000
20
       31.180710000
30
      -14.668700000
11
       23.868210000
21
       31.180710000
31
      -14.668700000
0
LINE
8
1
62
1
10
       23.868210000
20
       31.180710000
30
      -14.668700000
11
       23.868210000
21
       31.180710000
31
      -14.668700000
0
LINE
8
1
62
1
10
       23.868210000
20
       31.180710000
30
      -14.668700000
11
       23.868210000
21
       31.180710000
31
      -14.668700000
0
LINE
8
1
62
1
10
       20.784650000
20
       27.795990000
30
      -22.020350000
11
       20.784650000
21
       27.795990000
31
      -22.020350000
0
LINE
8
1
62
1
10
       20.784650000
20
       27.795990000
30
      -22.020350000
11
       20.784650000
21
       27.795990000
31
      -22.020350000
0
LINE
8
1
62
1
10
       20.784650000
20
       27.795990000
30
      -22.020350000
11
       20.784650000
21
       27.795990000
31
      -22.020350000
0
LINE
8
1
62
1
10
       21.380490000
20
       63.727670000
30
      -22.701290000
11
       21.380490000
21
       63.727670000
31
      -22.701290000
0
LINE
8
1
62
1
10
       21.380490000
20
       63.727670000
30
      -22.701290000
11
       21.380490000
21
       63.727670000
31
      -22.701290000
0
LINE
8
1
62
1
10
       21.380490000
20
       63.727670000
30
      -22.701290000
11
       21.380490000
21
       63.727670000
31
      -22.701290000
0
LINE
8
1
62
1
10
       24.583580000
20
       58.815380000
30
       -5.958860000
11
       24.583580000
21
       58.815380000
31
       -5.958860000
0
LINE
8
1
62
1
10
       24.583580000
20
       58.815380000
30
       -5.958860000
11
       24.583580000
21
       58.815380000
31
       -5.958860000
0
LINE
8
1
62
1
10
       24.583580000
20
       58.815380000
30
       -5.958860000
11
       24.583580000
21
       58.815380000
31
       -5.958860000
0
LINE
8
1
62
1
10
       25.809120000
20
       38.644880000
30
       -6.122780000
11
       25.809120000
21
       38.644880000
31
       -6.122780000
0
LINE
8
1
62
1
10
       25.809120000
20
       38.644880000
30
       -6.122780000
11
       25.809120000
21
       38.644880000
31
       -6.122780000
0
LINE
8
1
62
1
10
       25.809120000
20
       38.644880000
30
       -6.122780000
11
       25.809120000
21
       38.644880000
31
       -6.122780000
0
LINE
8
1
62
1
10
       24.838560000
20
       49.544860000
30
      -20.376350000
11
       24.838560000
21
       49.544860000
31
      -20.376350000
0
LINE
8
1
62
1
10
       24.838560000
20
       49.544860000
30
      -20.376350000
11
       24.838560000
21
       49.544860000
31
      -20.376350000
0
LINE
8
1
62
1
10
       24.838560000
20
       49.544860000
30
      -20.376350000
11
       24.838560000
21
       49.544860000
31
      -20.376350000
0
LINE
8
1
62
1
10
       26.562540000
20
       49.385540000
30
      -15.649070000
11
       26.562540000
21
       49.385540000
31
      -15.649070000
0
LINE
8
1
62
1
10
       26.562540000
20
       49.385540000
30
      -15.649070000
11
       26.562540000
21
       49.385540000
31
      -15.649070000
0
LINE
8
1
62
1
10
       26.562540000
20
       49.385540000
30
      -15.649070000
11
       26.562540000
21
       49.385540000
31
      -15.649070000
0
LINE
8
1
62
1
10
       21.585930000
20
       20.979560000
30
      -12.587460000
11
       21.585930000
21
       20.979560000
31
      -12.587460000
0
LINE
8
1
62
1
10
       21.585930000
20
       20.979560000
30
      -12.587460000
11
       21.585930000
21
       20.979560000
31
      -12.587460000
0
LINE
8
1
62
1
10
       21.585930000
20
       20.979560000
30
      -12.587460000
11
       21.585930000
21
       20.979560000
31
      -12.587460000
0
LINE
8
1
62
1
10
       24.522080000
20
       36.126720000
30
      -23.832440000
11
       24.522080000
21
       36.126720000
31
      -23.832440000
0
LINE
8
1
62
1
10
       24.522080000
20
       36.126720000
30
      -23.832440000
11
       24.522080000
21
       36.126720000
31
      -23.832440000
0
LINE
8
1
62
1
10
       24.522080000
20
       36.126720000
30
      -23.832440000
11
       24.522080000
21
       36.126720000
31
      -23.832440000
0
LINE
8
1
62
1
10
       20.806260000
20
       78.423100000
30
      -12.502430000
11
       20.806260000
21
       78.423100000
31
      -12.502430000
0
LINE
8
1
62
1
10
       20.806260000
20
       78.423100000
30
      -12.502430000
11
       20.806260000
21
       78.423100000
31
      -12.502430000
0
LINE
8
1
62
1
10
       20.806260000
20
       78.423100000
30
      -12.502430000
11
       20.806260000
21
       78.423100000
31
      -12.502430000
0
LINE
8
1
62
1
10
       23.674480000
20
       25.877300000
30
      -13.586690000
11
       23.674480000
21
       25.877300000
31
      -13.586690000
0
LINE
8
1
62
1
10
       23.674480000
20
       25.877300000
30
      -13.586690000
11
       23.674480000
21
       25.877300000
31
      -13.586690000
0
LINE
8
1
62
1
10
       23.674480000
20
       25.877300000
30
      -13.586690000
11
       23.674480000
21
       25.877300000
31
      -13.586690000
0
LINE
8
1
62
1
10
       22.698410000
20
       73.450730000
30
      -13.544920000
11
       22.698410000
21
       73.450730000
31
      -13.544920000
0
LINE
8
1
62
1
10
       22.698410000
20
       73.450730000
30
      -13.544920000
11
       22.698410000
21
       73.450730000
31
      -13.544920000
0
LINE
8
1
62
1
10
       22.698410000
20
       73.450730000
30
      -13.544920000
11
       22.698410000
21
       73.450730000
31
      -13.544920000
0
LINE
8
1
62
1
10
       24.888410000
20
       54.080380000
30
      -23.839480000
11
       24.888410000
21
       54.080380000
31
      -23.839480000
0
LINE
8
1
62
1
10
       24.888410000
20
       54.080380000
30
      -23.839480000
11
       24.888410000
21
       54.080380000
31
      -23.839480000
0
LINE
8
1
62
1
10
       24.888410000
20
       54.080380000
30
      -23.839480000
11
       24.888410000
21
       54.080380000
31
      -23.839480000
0
LINE
8
1
62
1
10
       25.801500000
20
       46.058730000
30
      -24.218150000
11
       25.801500000
21
       46.058730000
31
      -24.218150000
0
LINE
8
1
62
1
10
       25.801500000
20
       46.058730000
30
      -24.218150000
11
       25.801500000
21
       46.058730000
31
      -24.218150000
0
LINE
8
1
62
1
10
       25.801500000
20
       46.058730000
30
      -24.218150000
11
       25.801500000
21
       46.058730000
31
      -24.218150000
0
LINE
8
1
62
1
10
       24.706860000
20
       59.464360000
30
      -23.204280000
11
       24.706860000
21
       59.464360000
31
      -23.204280000
0
LINE
8
1
62
1
10
       24.706860000
20
       59.464360000
30
      -23.204280000
11
       24.706860000
21
       59.464360000
31
      -23.204280000
0
LINE
8
1
62
1
10
       24.706860000
20
       59.464360000
30
      -23.204280000
11
       24.706860000
21
       59.464360000
31
      -23.204280000
0
LINE
8
1
62
1
10
       26.869160000
20
       64.306330000
30
      -14.858670000
11
       26.869160000
21
       64.306330000
31
      -14.858670000
0
LINE
8
1
62
1
10
       26.869160000
20
       64.306330000
30
      -14.858670000
11
       26.869160000
21
       64.306330000
31
      -14.858670000
0
LINE
8
1
62
1
10
       26.869160000
20
       64.306330000
30
      -14.858670000
11
       26.869160000
21
       64.306330000
31
      -14.858670000
0
LINE
8
1
62
1
10
       27.833290000
20
       34.869340000
30
      -14.867330000
11
       27.833290000
21
       34.869340000
31
      -14.867330000
0
LINE
8
1
62
1
10
       27.833290000
20
       34.869340000
30
      -14.867330000
11
       27.833290000
21
       34.869340000
31
      -14.867330000
0
LINE
8
1
62
1
10
       27.833290000
20
       34.869340000
30
      -14.867330000
11
       27.833290000
21
       34.869340000
31
      -14.867330000
0
LINE
8
1
62
1
10
       27.224260000
20
       40.828900000
30
      -24.015050000
11
       27.224260000
21
       40.828900000
31
      -24.015050000
0
LINE
8
1
62
1
10
       27.224260000
20
       40.828900000
30
      -24.015050000
11
       27.224260000
21
       40.828900000
31
      -24.015050000
0
LINE
8
1
62
1
10
       27.224260000
20
       40.828900000
30
      -24.015050000
11
       27.224260000
21
       40.828900000
31
      -24.015050000
0
LINE
8
1
62
1
10
       29.227990000
20
       54.095340000
30
      -15.399580000
11
       29.227990000
21
       54.095340000
31
      -15.399580000
0
LINE
8
1
62
1
10
       29.227990000
20
       54.095340000
30
      -15.399580000
11
       29.227990000
21
       54.095340000
31
      -15.399580000
0
LINE
8
1
62
1
10
       29.227990000
20
       54.095340000
30
      -15.399580000
11
       29.227990000
21
       54.095340000
31
      -15.399580000
0
LINE
8
1
62
1
10
       29.776610000
20
       45.032350000
30
      -15.414640000
11
       29.776610000
21
       45.032350000
31
      -15.414640000
0
LINE
8
1
62
1
10
       29.776610000
20
       45.032350000
30
      -15.414640000
11
       29.776610000
21
       45.032350000
31
      -15.414640000
0
LINE
8
1
62
1
10
       29.776610000
20
       45.032350000
30
      -15.414640000
11
       29.776610000
21
       45.032350000
31
      -15.414640000
0
LINE
8
1
62
1
10
       29.357760000
20
       59.501420000
30
      -15.113200000
11
       29.357760000
21
       59.501420000
31
      -15.113200000
0
LINE
8
1
62
1
10
       29.357760000
20
       59.501420000
30
      -15.113200000
11
       29.357760000
21
       59.501420000
31
      -15.113200000
0
LINE
8
1
62
1
10
       29.357760000
20
       59.501420000
30
      -15.113200000
11
       29.357760000
21
       59.501420000
31
      -15.113200000
0
LINE
8
1
62
1
10
       30.348860000
20
       39.657330000
30
      -15.125170000
11
       30.348860000
21
       39.657330000
31
      -15.125170000
0
LINE
8
1
62
1
10
       30.348860000
20
       39.657330000
30
      -15.125170000
11
       30.348860000
21
       39.657330000
31
      -15.125170000
0
LINE
8
1
62
1
10
       30.348860000
20
       39.657330000
30
      -15.125170000
11
       30.348860000
21
       39.657330000
31
      -15.125170000
0
ENDSEC
0
EOF
